<?xml version="1.0" encoding="utf-8"?>
<!-- Generator: Adobe Illustrator 19.0.0, SVG Export Plug-In . SVG Version: 6.00 Build 0)  -->
<svg version="1.1" id="layer" xmlns="http://www.w3.org/2000/svg" xmlns:xlink="http://www.w3.org/1999/xlink" x="0px" y="0px"
	 viewBox="-153 -46 652 652" style="enable-background:new -153 -46 652 652;" xml:space="preserve">
<style type="text/css">
	.st0{fill:#CCE2F5;}
	.st1{fill:#3F9FD6;}
	.st2{fill:#003771;}
	.st3{fill:#0068B2;}
</style>
<path id="XMLID_53_" class="st0" d="M49.9,350.6c0,0-40.8,17.5-75.8,36.8c-5.7,3.2-1.8,5.3,4.5,4.1c9.6-1.9,56.8-8.8,87.4-11.4
	c36-3.1,57.3-4,86.6-4.6c50.1-0.9,90,2.1,124.5,5.8c38.2,4.1,88.7,13.4,93,14.4c6.8,1.6,9.4-1.6,1.7-9.6
	c-13.9-14.3-47.7-36-62.9-42.6c-14.6-6.3-38.7-3.2-35.7-1.3c4,2.6,39.7,23.4,23.6,27.1c-8.4,1.9-67.6-4.1-116.5-4.3
	c-46.2-0.1-97,2.8-117,3.5c-19.3,0.7-14.2-3.8-6.2-8.9c6.7-4.3,23.7-11.5,26-12.8c2.3-1.3-16.7-2.2-23.8,0.1
	C52.3,349.4,49.9,350.6,49.9,350.6"/>
<path id="XMLID_52_" class="st1" d="M125.2,323.3c-0.2-0.1,51.9,4.3,139.9-0.3c30.7-1.6,42.7-9.3,33.5-32.8
	C287.1,261,120.8,44.7,107.8,29.9c-5.1-5.8,219.8,233.2,255.3,275.5c36,42.9-11.2,43.6-11.2,43.6S200.9,356.5,125.2,323.3"/>
<path id="XMLID_51_" class="st2" d="M184.9,186c0.2-0.1-155.3,119.1-125.2,140.4C89,347,369.7,364.8,369.7,364.8s0.3,2.6-75.8,7
	c-151.2,8.8-233.4,0.9-285.9-2.7c-50-3.4-21.6-33.3-18.3-36.9C-7,328.6,100.5,218.6,184.9,186"/>
<path id="XMLID_50_" class="st3" d="M261.1,67.5c-46,31.9-113.9,87.3-228.8,196.6c-57.7,54.9-57.8,60.7-51.6,54.1
	c7.6-8,245.3-198,276.8-195.6c14.5,1.1,12.3,38.7,6.8,74.3c1.9,2.1,3.9,4.1,5.8,6.2c18.2-59.6,32.1-114.6,32.5-125.5
	C303,63.5,290.3,47.3,261.1,67.5"/>
<path id="XMLID_49_" class="st3" d="M260.8,232.3c-0.8-1.1-1.6-2.2-2.4-3.3c-3.7,18.2-6.9,31.4-6.9,31.3
	C254.7,251.1,257.8,241.7,260.8,232.3"/>
<path id="XMLID_1_" class="st2" d="M-158.4,496.3c-0.8-1.2-1.8-2.3-2.9-3.1c-1.1-0.8-2.4-1.5-3.8-1.9c-1.4-0.4-2.8-0.7-4.3-0.7
	c-2.8,0-5.1,0.5-7.1,1.5c-2,1-3.6,2.4-4.9,4.1c-1.3,1.7-2.2,3.6-2.8,5.7c-0.6,2.1-0.9,4.3-0.9,6.6c0,2.2,0.3,4.4,0.9,6.5
	c0.6,2.1,1.5,4.1,2.8,5.8c1.3,1.7,2.9,3.1,4.9,4.1c2,1,4.3,1.5,7.1,1.5c1.9,0,3.7-0.3,5.2-1c1.5-0.7,2.9-1.6,4-2.8
	c1.1-1.2,2-2.6,2.7-4.1c0.7-1.6,1.1-3.3,1.3-5.1h4c-0.3,2.5-0.9,4.8-1.8,6.8c-0.9,2-2.1,3.7-3.6,5.1c-1.5,1.4-3.2,2.5-5.2,3.3
	c-2,0.8-4.2,1.1-6.6,1.1c-3.3,0-6.1-0.6-8.6-1.7s-4.5-2.7-6.1-4.6c-1.6-1.9-2.8-4.2-3.7-6.7c-0.8-2.6-1.2-5.2-1.2-8.1
	c0-2.8,0.4-5.5,1.2-8c0.8-2.6,2-4.8,3.7-6.8c1.6-2,3.7-3.5,6.1-4.7c2.5-1.2,5.3-1.7,8.6-1.7c2,0,3.9,0.3,5.8,0.9
	c1.9,0.6,3.6,1.4,5.1,2.5c1.5,1.1,2.8,2.5,3.8,4.1c1,1.6,1.7,3.5,1.9,5.7h-4C-157,499-157.6,497.6-158.4,496.3 M-67.1,500.5
	c-0.8,2.6-1.2,5.2-1.2,8.1c0,2.8,0.4,5.5,1.2,8c0.8,2.6,2,4.8,3.7,6.7c1.6,1.9,3.7,3.5,6.1,4.6c2.5,1.2,5.3,1.8,8.6,1.8
	c3.3,0,6.1-0.6,8.5-1.8c2.4-1.2,4.5-2.7,6.1-4.6c1.6-1.9,2.8-4.2,3.7-6.7c0.8-2.6,1.2-5.2,1.2-8c0-2.8-0.4-5.5-1.2-8.1
	c-0.8-2.6-2-4.8-3.7-6.8c-1.6-2-3.7-3.5-6.1-4.7c-2.4-1.2-5.3-1.7-8.5-1.7c-3.3,0-6.1,0.6-8.6,1.7c-2.5,1.2-4.5,2.7-6.1,4.7
	C-65,495.7-66.2,498-67.1,500.5 M-63.4,515.1c-0.6-2.1-0.9-4.3-0.9-6.5c0-2.3,0.3-4.4,0.9-6.6c0.6-2.1,1.5-4.1,2.8-5.7
	c1.3-1.7,2.9-3.1,4.9-4.1s4.3-1.5,7.1-1.5c2.8,0,5.1,0.5,7.1,1.5c1.9,1,3.6,2.4,4.8,4.1c1.3,1.7,2.2,3.6,2.8,5.7
	c0.6,2.1,0.9,4.3,0.9,6.6c0,2.2-0.3,4.4-0.9,6.5c-0.6,2.2-1.5,4.1-2.8,5.8c-1.3,1.7-2.9,3.1-4.8,4.1c-2,1-4.3,1.6-7.1,1.6
	c-2.8,0-5.1-0.5-7.1-1.6c-2-1-3.6-2.4-4.9-4.1C-61.9,519.2-62.8,517.3-63.4,515.1 M56.6,488.2v26.1c0,2.1,0.3,4.1,0.9,6
	c0.6,1.9,1.6,3.5,2.9,4.9c1.3,1.4,3,2.5,5,3.3c2,0.8,4.5,1.2,7.4,1.2c2.9,0,5.4-0.4,7.4-1.2c2-0.8,3.7-1.9,5-3.3
	c1.3-1.4,2.3-3.1,2.9-4.9c0.6-1.9,0.9-3.9,0.9-6v-26.1h-3.9v25.2c0,2.4-0.3,4.4-0.8,6c-0.5,1.7-1.3,3-2.4,4.1c-1,1-2.3,1.8-3.8,2.3
	c-1.5,0.5-3.2,0.7-5.2,0.7c-1.9,0-3.6-0.3-5.1-0.7c-1.5-0.5-2.8-1.2-3.8-2.3c-1.1-1.1-1.8-2.4-2.4-4.1c-0.5-1.7-0.8-3.7-0.8-6v-25.2
	H56.6z M176.7,488.2V529h4v-34.5h0.1l24.2,34.5h4.4v-40.8h-3.9v34.5h-0.1l-24.2-34.5H176.7z M326.1,496.3c0.8,1.2,1.4,2.6,1.7,4.2
	h3.9c-0.3-2.1-0.9-4-1.9-5.7c-1-1.6-2.3-3-3.8-4.1c-1.5-1.1-3.2-2-5.1-2.5c-1.9-0.6-3.8-0.9-5.8-0.9c-3.3,0-6.1,0.6-8.6,1.7
	c-2.5,1.2-4.5,2.7-6.1,4.7c-1.6,2-2.8,4.2-3.7,6.8c-0.8,2.5-1.2,5.2-1.2,8c0,2.8,0.4,5.5,1.2,8.1c0.8,2.6,2,4.8,3.7,6.7
	c1.6,1.9,3.7,3.5,6.1,4.6s5.3,1.7,8.6,1.7c2.4,0,4.7-0.4,6.7-1.1c2-0.8,3.7-1.9,5.2-3.3c1.5-1.4,2.7-3.1,3.6-5.1
	c0.9-2,1.5-4.3,1.8-6.8h-3.9c-0.2,1.8-0.6,3.5-1.3,5.1c-0.7,1.6-1.6,3-2.7,4.1c-1.1,1.2-2.5,2.1-4,2.8c-1.5,0.7-3.3,1-5.2,1
	c-2.8,0-5.1-0.5-7.1-1.5c-2-1-3.6-2.4-4.9-4.1c-1.3-1.7-2.2-3.6-2.8-5.8c-0.6-2.1-0.9-4.3-0.9-6.5c0-2.2,0.3-4.4,0.9-6.6
	c0.6-2.1,1.5-4,2.8-5.7c1.3-1.7,2.9-3.1,4.9-4.1c2-1,4.3-1.5,7.1-1.5c1.5,0,3,0.2,4.3,0.7c1.4,0.4,2.6,1.1,3.8,1.9
	C324.4,494.1,325.3,495.1,326.1,496.3 M422.3,488.2h-4V529h4V488.2z M510.7,488.2V529h27.2v-3.3h-23.2v-37.5H510.7z"/>
<path id="XMLID_9_" class="st3" d="M-174.3,412.7c0.3-1.4,0.8-2.1,1.4-2.1c0.7,0,1.2,0.4,2.3,2.6l22.9,46.5l22.8-47.1
	c0.7-1.3,1.1-2,1.8-2c0.8,0,1.3,0.8,1.5,2.6l7.6,51c0.8,5.2,1.6,7.6,4.1,8.3c2.4,0.7,4.1,0.8,5.2,0.8c0.8,0,1.3,0.1,1.3,0.6
	c0,0.7-1,0.9-2.2,0.9c-2.1,0-13.7-0.3-17-0.5c-1.9-0.2-2.4-0.4-2.4-0.9c0-0.4,0.3-0.6,0.9-0.9c0.5-0.2,0.8-1.2,0.4-3.6l-5-36.3h-0.3
	l-18.3,37.4c-1.9,3.9-2.3,4.6-3.1,4.6c-0.8,0-1.6-1.7-2.9-4.1c-2-3.8-8.6-16.4-9.7-18.7c-0.8-1.7-5.8-12.1-8.7-18.3h-0.3l-4.4,32.8
	c-0.2,1.5-0.3,2.6-0.3,3.9c0,1.6,1.1,2.3,2.5,2.6c1.5,0.3,2.7,0.4,3.5,0.4c0.7,0,1.3,0.2,1.3,0.6c0,0.8-0.8,0.9-2,0.9
	c-3.5,0-7.3-0.3-8.8-0.3c-1.6,0-5.6,0.3-8.3,0.3c-0.8,0-1.5-0.2-1.5-0.9c0-0.4,0.5-0.6,1.3-0.6c0.7,0,1.3,0,2.5-0.3
	c2.4-0.5,3-3.7,3.4-6.5L-174.3,412.7z M-91.2,450.8c0,7.6,0,14.1-0.4,17.6c-0.3,2.4-0.8,4.2-2.4,4.5c-0.8,0.2-1.8,0.3-3,0.3
	c-1,0-1.3,0.2-1.3,0.7c0,0.6,0.6,0.8,1.7,0.8c1.7,0,3.9-0.2,5.8-0.2c2-0.1,3.9-0.1,4.8-0.1c2.5,0,5.1,0.1,8.7,0.2
	c3.6,0.1,8.2,0.3,14.5,0.3c3.2,0,3.9,0,4.5-2.1c0.4-1.7,1.1-7.3,1.1-9.2c0-0.8,0-1.5-0.7-1.5c-0.6,0-0.8,0.3-0.9,1.2
	c-0.6,3.4-1.6,5.1-3.8,6.1c-2.2,1-5.7,1-7.9,1c-8.6,0-9.9-1.2-10.1-6.9c-0.1-2.4,0-10,0-12.8v-6.5c0-0.5,0.1-0.8,0.5-0.8
	c2,0,10.3,0.1,11.9,0.3c3.1,0.3,4.3,1.6,4.7,3.2c0.3,1.1,0.3,2.1,0.3,3c0,0.4,0.2,0.7,0.8,0.7c0.8,0,0.8-0.9,0.8-1.6
	c0-0.6,0.3-3.9,0.3-5.5c0.3-4.2,0.7-5.5,0.7-6c0-0.5-0.3-0.7-0.6-0.7c-0.4,0-0.8,0.4-1.3,1.1c-0.8,0.8-2,1.1-4,1.2
	c-1.9,0.2-11.6,0.2-13.4,0.2c-0.5,0-0.6-0.3-0.6-0.9v-20.9c0-0.6,0.2-0.8,0.6-0.8c1.7,0,10.5,0.2,11.9,0.3c4.2,0.5,5,1.5,5.6,3
	c0.4,1,0.5,2.4,0.5,3c0,0.7,0.2,1.1,0.8,1.1c0.6,0,0.8-0.5,0.8-0.9c0.2-1,0.3-4.6,0.4-5.4c0.3-3.8,0.7-4.8,0.7-5.4
	c0-0.4-0.1-0.8-0.5-0.8c-0.4,0-0.9,0.3-1.3,0.3c-0.7,0.2-2,0.3-3.6,0.5c-1.6,0.1-18.3,0.1-21,0.1c-1.2,0-3.1-0.1-5.3-0.2
	c-2.1,0-4.5-0.1-6.8-0.1c-1.3,0-1.8,0.2-1.8,0.8c0,0.6,0.5,0.7,1.4,0.7c1.2,0,2.6,0.1,3.3,0.3c2.8,0.6,3.4,1.9,3.6,4.7
	c0.2,2.6,0.2,4.9,0.2,17.5V450.8z M-28.1,450.8c0,7.6,0,14.1-0.4,17.6c-0.3,2.4-0.8,4.2-2.4,4.5c-0.8,0.2-1.8,0.3-3,0.3
	c-1,0-1.3,0.3-1.3,0.7c0,0.6,0.6,0.8,1.7,0.8c3.4,0,8.6-0.3,10.6-0.3c2.3,0,7.6,0.3,13.2,0.3c0.9,0,1.6-0.3,1.6-0.8
	c0-0.4-0.4-0.7-1.3-0.7c-1.3,0-3.1-0.2-4.3-0.3c-2.5-0.3-3-2.1-3.3-4.4c-0.4-3.5-0.4-10.1-0.4-17.6V417l10.6,0.3
	c7.5,0.2,9.7,2.5,9.9,4.6l0.1,0.9c0.1,1.3,0.3,1.7,0.9,1.7c0.5,0,0.7-0.5,0.8-1.3c0-2.1,0.3-7.8,0.3-9.6c0-1.2-0.1-1.7-0.7-1.7
	c-0.3,0-1,0.2-2.3,0.4c-1.3,0.2-3.1,0.4-5.8,0.4h-33.2c-2.8,0-5.9-0.2-8.4-0.4c-2.1-0.2-2.9-1-3.6-1c-0.5,0-0.8,0.5-1,1.6
	c-0.2,0.7-1.8,8.2-1.8,9.5c0,0.9,0.2,1.3,0.8,1.3c0.5,0,0.8-0.3,0.9-1c0.2-0.7,0.6-1.6,1.4-2.9c1.3-1.8,3.3-2.2,8.1-2.4l12.5-0.3
	V450.8z M20.6,450.8c0,7.6,0,14.1-0.4,17.6c-0.3,2.4-0.8,4.2-2.4,4.5c-0.8,0.2-1.8,0.3-3,0.3c-1,0-1.3,0.3-1.3,0.7
	c0,0.6,0.6,0.8,1.7,0.8c3.4,0,8.6-0.2,10.3-0.2c1.3,0,7.5,0.2,12.3,0.2c1.1,0,1.7-0.2,1.7-0.8c0-0.4-0.3-0.7-1-0.7
	c-1,0-2.9-0.2-4.1-0.3c-2.5-0.3-3-2.1-3.3-4.5c-0.4-3.5-0.4-10-0.4-17.6v-1.1c0-0.5,0.3-0.7,0.7-0.7l7.3,0.2c0.6,0,1.1,0.1,1.5,0.6
	c1.1,1.2,4.9,6.8,8.3,11.4c4.7,6.4,7.9,10.2,11.5,12.1c2.2,1.2,4.3,1.6,9,1.6h8c1,0,1.6-0.2,1.6-0.8c0-0.4-0.3-0.7-1-0.7
	s-1.4-0.1-2.4-0.3c-1.3-0.3-4.7-0.8-9.4-5.6c-4.9-5.1-10.7-12.4-18.2-21.7c8.5-6.8,11.1-12.4,11.1-18.5c0-5.5-3.4-9.7-5.7-11.3
	c-4.5-3.1-10.2-3.6-15.4-3.6c-2.6,0-9,0.3-11.8,0.3c-1.8,0-7-0.3-11.5-0.3c-1.3,0-1.9,0.2-1.9,0.8c0,0.6,0.5,0.7,1.4,0.7
	c1.2,0,2.6,0.1,3.3,0.3c2.8,0.6,3.4,1.9,3.6,4.7c0.2,2.6,0.2,4.9,0.2,17.5V450.8z M30.5,417.8c0-0.7,0.2-1,0.8-1.2
	c0.8-0.3,2.4-0.3,4.4-0.3c5,0,12.8,3.4,12.8,15.1c0,6.8-2.4,10.6-4.9,12.4c-1.5,1.1-2.6,1.4-6,1.4c-2.1,0-4.6-0.3-6.4-0.8
	c-0.6-0.3-0.8-0.6-0.8-1.5V417.8z M72.3,443.6c0,14.6,9.7,32.3,33.8,32.3c21.3,0,34.8-14.9,34.8-33.8c0-18.9-13-30.8-33.9-30.8
	C81.7,411.2,72.3,429.5,72.3,443.6 M129.1,445.1c0,23.8-13.6,26.6-19.5,26.6c-16.1,0-25.8-13.6-25.8-30.8c0-20.5,11-25.8,20.6-25.8
	C118.3,415.2,129.1,426.7,129.1,445.1 M153,450.8c0,7.6,0,14.1-0.4,17.6c-0.3,2.4-0.8,4.2-2.4,4.5c-0.8,0.2-1.8,0.3-3,0.3
	c-1,0-1.3,0.2-1.3,0.7c0,0.6,0.6,0.8,1.7,0.8c3.4,0,8.6-0.2,10.6-0.2c2.2,0,7.5,0.2,13,0.2c0.9,0,1.6-0.2,1.6-0.8
	c0-0.4-0.4-0.7-1.4-0.7c-1.3,0-3.1-0.2-4.3-0.3c-2.5-0.3-3-2.1-3.3-4.5c-0.4-3.5-0.4-10.1-0.4-17.6v-33c0-0.9,0.3-1.4,0.7-1.6
	c0.8-0.3,2-0.3,3.3-0.3c1.9,0,5.4,0.5,8.4,3.2c4.7,4.1,4.9,9.6,4.9,12.4c0,8.4-6.5,13.6-11.2,13.6c-1.8,0-2.4,0.3-2.4,0.9
	c0,0.6,0.6,0.7,1,0.8c0.4,0.1,1.3,0.1,1.8,0.1c11.9,0,20.6-8.3,20.6-20c0-4.4-2.4-8.1-4.2-9.8c-1.3-1.2-5.1-4.7-15.6-4.7
	c-3.9,0-8.7,0.3-12.2,0.3c-2.4,0-7.6-0.3-12.1-0.3c-1.3,0-1.8,0.2-1.8,0.8c0,0.6,0.5,0.7,1.4,0.7c1.2,0,2.6,0.1,3.3,0.3
	c2.8,0.6,3.4,1.9,3.6,4.7c0.2,2.6,0.2,4.9,0.2,17.5V450.8z M197.2,443.6c0,14.6,9.7,32.3,33.8,32.3c21.3,0,34.7-14.9,34.7-33.8
	c0-18.9-13-30.8-33.9-30.8C206.6,411.2,197.2,429.5,197.2,443.6 M254,445.1c0,23.8-13.6,26.6-19.5,26.6c-16.1,0-25.8-13.6-25.8-30.8
	c0-20.5,11-25.8,20.7-25.8C243.2,415.2,254,426.7,254,445.1 M288.4,436.3c0-12.5,0-14.8,0.2-17.5c0.2-2.9,0.8-4.3,3.1-4.7
	c1-0.2,2.4-0.3,3.3-0.3c1,0,1.5-0.2,1.5-0.7c0-0.6-0.6-0.7-1.8-0.7c-3.3,0-9.4,0.3-11.4,0.3c-2.3,0-7.6-0.3-11.5-0.3
	c-1.3,0-1.8,0.2-1.8,0.7c0,0.6,0.5,0.7,1.4,0.7c1.1,0,2.1,0.1,2.8,0.3c2.8,0.6,3.4,1.9,3.6,4.7c0.2,2.6,0.2,4.9,0.2,17.5v14.5
	c0,7.6,0,14.1-0.4,17.6c-0.3,2.4-0.8,4.2-2.4,4.5c-0.8,0.2-1.8,0.3-3,0.3c-1,0-1.3,0.3-1.3,0.7c0,0.6,0.6,0.8,1.7,0.8
	c1.7,0,3.9-0.2,5.8-0.2c2-0.1,3.9-0.1,4.8-0.1c3.4,0,6.5,0.1,10.2,0.3c3.8,0.1,8.1,0.3,14.2,0.3c4.4,0,4.8-0.4,5.3-2.2
	c0.7-2.4,1.3-8.6,1.3-9.5c0-1-0.1-1.4-0.7-1.4c-0.7,0-0.8,0.5-0.9,1.2c-0.2,1.6-1.2,3.9-2.2,4.9c-2.1,2.2-5.4,2.3-9.8,2.3
	c-6.6,0-8.7-0.6-10.2-1.8c-1.8-1.5-1.8-7.2-1.8-17.7V436.3z M328,450.8c0,8,0,14.5-0.4,18c-0.3,2.4-0.8,3.8-2.4,4.1
	c-0.8,0.2-1.8,0.3-3,0.3c-1,0-1.3,0.2-1.3,0.7c0,0.6,0.6,0.8,1.7,0.8c3.4,0,8.6-0.2,10.6-0.2c2.3,0,7.6,0.2,13.1,0.2
	c0.9,0,1.6-0.2,1.6-0.8c0-0.4-0.4-0.7-1.3-0.7c-1.3,0-3.1-0.2-4.3-0.3c-2.5-0.3-3.1-1.8-3.4-4c-0.3-3.6-0.3-10.1-0.3-18.1v-14.5
	c0-12.5,0-14.8,0.2-17.5c0.2-2.9,0.8-4.3,3.1-4.7c1-0.2,1.7-0.3,2.5-0.3c0.8,0,1.3-0.2,1.3-0.8c0-0.5-0.7-0.7-1.8-0.7
	c-3.2,0-8.1,0.3-10.2,0.3c-2.4,0-7.7-0.3-10.9-0.3c-1.3,0-2,0.2-2,0.7c0,0.7,0.5,0.8,1.3,0.8c1,0,2.1,0.1,3,0.3
	c1.9,0.4,2.7,1.8,2.9,4.6c0.2,2.6,0.2,4.9,0.2,17.5V450.8z M376.1,450.8c0,7.6,0,14.1-0.4,17.6c-0.3,2.4-0.8,4.2-2.4,4.5
	c-0.8,0.2-1.8,0.3-3,0.3c-1,0-1.4,0.3-1.4,0.7c0,0.6,0.6,0.8,1.7,0.8c3.4,0,8.6-0.3,10.6-0.3c2.3,0,7.6,0.3,13.2,0.3
	c0.9,0,1.6-0.3,1.6-0.8c0-0.4-0.4-0.7-1.3-0.7c-1.3,0-3.1-0.2-4.3-0.3c-2.5-0.3-3-2.1-3.3-4.4c-0.4-3.5-0.4-10.1-0.4-17.6V417
	l10.6,0.3c7.5,0.2,9.7,2.5,9.9,4.6l0.1,0.9c0.1,1.3,0.3,1.7,0.9,1.7c0.5,0,0.7-0.5,0.8-1.3c0-2.1,0.3-7.8,0.3-9.6
	c0-1.2-0.1-1.7-0.7-1.7c-0.3,0-1,0.2-2.3,0.4c-1.3,0.2-3.1,0.4-5.8,0.4h-33.2c-2.8,0-5.9-0.2-8.4-0.4c-2.1-0.2-2.9-1-3.6-1
	c-0.5,0-0.8,0.5-1,1.6c-0.2,0.7-1.8,8.2-1.8,9.5c0,0.9,0.2,1.3,0.8,1.3c0.5,0,0.8-0.3,0.9-1c0.2-0.7,0.6-1.6,1.4-2.9
	c1.3-1.8,3.3-2.2,8.1-2.4l12.5-0.3V450.8z M441.3,453.2c0.4,0,0.7,0.2,0.8,0.6l6.7,17.5c0.4,1-0.2,1.7-0.8,1.9
	c-0.8,0.1-1.2,0.3-1.2,0.8c0,0.6,1,0.6,2.5,0.7c6.7,0.2,12.8,0.2,15.9,0.2c3.1,0,3.9-0.2,3.9-0.8c0-0.6-0.4-0.7-1.1-0.7
	c-1,0-2.3-0.1-3.5-0.3c-1.8-0.4-4.2-1.6-7.4-9c-5.4-12.5-18.8-46.2-20.8-50.7c-0.8-1.9-1.3-2.6-2.1-2.6c-0.8,0-1.3,0.9-2.3,3.3
	l-21.1,51.8c-1.7,4.1-3.3,6.9-7.1,7.4c-0.7,0.1-1.8,0.2-2.6,0.2c-0.7,0-1,0.2-1,0.7c0,0.7,0.5,0.8,1.6,0.8c4.4,0,9-0.2,9.9-0.2
	c2.6,0,6.2,0.2,8.9,0.2c0.9,0,1.4-0.2,1.4-0.8c0-0.5-0.3-0.7-1.3-0.7h-1.3c-2.6,0-3.4-1.1-3.4-2.6c0-1,0.4-3,1.3-5l4.5-11.8
	c0.2-0.5,0.3-0.7,0.8-0.7H441.3z M424.2,449.1c-0.3,0-0.4-0.3-0.3-0.6l7.7-20.3c0.1-0.3,0.3-0.7,0.5-0.7c0.3,0,0.3,0.4,0.4,0.7
	l7.6,20.4c0.1,0.3,0,0.5-0.4,0.5H424.2z M479.9,428.9h0.3c1.5,1.6,10.8,11.9,20,20.8c8.7,8.5,19.5,19.3,24.8,24.2
	c0.9,0.9,1.9,1.8,2.8,1.8c0.8,0,1.1-0.7,1.1-2.6l0.9-52c0.1-4.6,0.8-6.3,3.1-7c1-0.3,1.7-0.3,2.5-0.3c1,0,1.5-0.2,1.5-0.7
	c0-0.7-0.8-0.7-1.9-0.7c-4.1,0-7.3,0.3-8.2,0.3c-1.8,0-5.8-0.3-10.2-0.3c-1.3,0-2.2,0.1-2.2,0.7c0,0.5,0.3,0.7,1.4,0.7
	c1.2,0,3.2,0,4.4,0.5c2,0.8,2.8,2.4,2.8,7.4l0.8,37h-0.4c-1.4-1.3-12.8-13.2-18.5-18.8c-12.3-12-25-25.4-26-26.5
	c-1.4-1.5-2.2-2.6-3.1-2.6c-0.8,0-1.1,1.2-1.1,2.8l-0.8,48.8c-0.1,7.2-0.4,9.6-2.6,10.2c-1.2,0.3-2.7,0.4-3.8,0.4
	c-0.8,0-1.3,0.2-1.3,0.7c0,0.8,0.8,0.8,1.8,0.8c4.4,0,8.3-0.3,9.1-0.3c1.6,0,4.9,0.3,10.4,0.3c1.2,0,1.9-0.2,1.9-0.8
	c0-0.5-0.5-0.7-1.4-0.7c-1.3,0-2.9-0.1-4.4-0.6c-1.7-0.6-2.8-2.7-2.9-9.2L479.9,428.9z"/>
</svg>
